<?xml version="1.0" encoding="iso-8859-1"?>
<!-- Generator: Adobe Illustrator 19.0.0, SVG Export Plug-In . SVG Version: 6.00 Build 0)  -->
<svg version="1.1" id="Capa_1" xmlns="http://www.w3.org/2000/svg" xmlns:xlink="http://www.w3.org/1999/xlink" x="0px" y="0px"
	 viewBox="0 0 512 512" style="enable-background:new 0 0 512 512;" xml:space="preserve">
<g>
	<g>
		<path d="M0,109.176v293.647h512V109.176H0z M496.941,387.765H15.059V124.235h481.882V387.765z"/>
	</g>
</g>
<g>
	<g>
		<rect x="37.647" y="146.824" width="15.059" height="218.353"/>
	</g>
</g>
<g>
	<g>
		<rect x="67.765" y="350.118" width="15.059" height="15.059"/>
	</g>
</g>
<g>
	<g>
		<rect x="67.765" y="146.824" width="15.059" height="173.176"/>
	</g>
</g>
<g>
	<g>
		<rect x="97.882" y="350.118" width="15.059" height="15.059"/>
	</g>
</g>
<g>
	<g>
		<rect x="97.882" y="146.824" width="15.059" height="188.235"/>
	</g>
</g>
<g>
	<g>
		<rect x="128" y="350.118" width="15.059" height="15.059"/>
	</g>
</g>
<g>
	<g>
		<rect x="128" y="146.824" width="15.059" height="173.176"/>
	</g>
</g>
<g>
	<g>
		<rect x="158.118" y="350.118" width="15.059" height="15.059"/>
	</g>
</g>
<g>
	<g>
		<rect x="158.118" y="146.824" width="15.059" height="188.235"/>
	</g>
</g>
<g>
	<g>
		<rect x="188.235" y="350.118" width="15.059" height="15.059"/>
	</g>
</g>
<g>
	<g>
		<rect x="188.235" y="146.824" width="15.059" height="173.176"/>
	</g>
</g>
<g>
	<g>
		<rect x="218.353" y="350.118" width="15.059" height="15.059"/>
	</g>
</g>
<g>
	<g>
		<rect x="218.353" y="146.824" width="15.059" height="188.235"/>
	</g>
</g>
<g>
	<g>
		<rect x="248.471" y="350.118" width="15.059" height="15.059"/>
	</g>
</g>
<g>
	<g>
		<rect x="248.471" y="146.824" width="15.059" height="173.176"/>
	</g>
</g>
<g>
	<g>
		<rect x="278.588" y="350.118" width="15.059" height="15.059"/>
	</g>
</g>
<g>
	<g>
		<rect x="278.588" y="146.824" width="15.059" height="188.235"/>
	</g>
</g>
<g>
	<g>
		<rect x="308.706" y="350.118" width="15.059" height="15.059"/>
	</g>
</g>
<g>
	<g>
		<rect x="308.706" y="146.824" width="15.059" height="173.176"/>
	</g>
</g>
<g>
	<g>
		<rect x="338.824" y="350.118" width="15.059" height="15.059"/>
	</g>
</g>
<g>
	<g>
		<rect x="338.824" y="146.824" width="15.059" height="188.235"/>
	</g>
</g>
<g>
	<g>
		<rect x="368.941" y="350.118" width="15.059" height="15.059"/>
	</g>
</g>
<g>
	<g>
		<rect x="368.941" y="146.824" width="15.059" height="173.176"/>
	</g>
</g>
<g>
	<g>
		<rect x="399.059" y="350.118" width="15.059" height="15.059"/>
	</g>
</g>
<g>
	<g>
		<rect x="399.059" y="176.941" width="15.059" height="158.118"/>
	</g>
</g>
<g>
	<g>
		<rect x="429.177" y="350.118" width="15.059" height="15.059"/>
	</g>
</g>
<g>
	<g>
		<rect x="429.177" y="176.941" width="15.059" height="143.059"/>
	</g>
</g>
<g>
	<g>
		<rect x="459.294" y="176.941" width="15.059" height="188.235"/>
	</g>
</g>
<g>
	<g>
		<rect x="399.059" y="146.824" width="15.059" height="15.059"/>
	</g>
</g>
<g>
	<g>
		<rect x="429.177" y="146.824" width="15.059" height="15.059"/>
	</g>
</g>
<g>
	<g>
		<rect x="459.294" y="146.824" width="15.059" height="15.059"/>
	</g>
</g>
<g>
</g>
<g>
</g>
<g>
</g>
<g>
</g>
<g>
</g>
<g>
</g>
<g>
</g>
<g>
</g>
<g>
</g>
<g>
</g>
<g>
</g>
<g>
</g>
<g>
</g>
<g>
</g>
<g>
</g>
</svg>
